<svg xmlns="http://www.w3.org/2000/svg" data-name="Layer 1" viewBox="0 0 128 160" x="0px" y="0px"><title>miscellaneous 218 solid</title><path d="M109.252,70.00677a19.772,19.772,0,0,1-2.63385,2.24371c.27832.56982.5293,1.15479.76172,1.74951h1.7099C117.72949,74,124,79.75677,124,87.689v20.94281A1.36179,1.36179,0,0,1,122.64746,110H108.79877a9.93543,9.93543,0,0,1-1.8183,4h15.667A5.36667,5.36667,0,0,0,128,108.63177V87.689C128,77.49066,120.124,70.08105,109.252,70.00677Z"/><path d="M48.89648,85.94781A1.99973,1.99973,0,0,0,47.30182,84.606l-3.09094-.47168L42.81049,81.1499a2.00023,2.00023,0,0,0-3.621,0l-1.40143,2.98438-3.0899.47168a1.99984,1.99984,0,0,0-1.12976,3.37354l2.29486,2.353-.5459,3.3457a2.00025,2.00025,0,0,0,2.94141,2.07233L41,94.23541l2.74121,1.51508a2.00025,2.00025,0,0,0,2.94141-2.07233l-.5459-3.3457,2.29486-2.353A1.99941,1.99941,0,0,0,48.89648,85.94781Z"/><path d="M94.89648,85.94781A2.00065,2.00065,0,0,0,93.30182,84.606l-3.09094-.47168L88.81049,81.1499a2.00023,2.00023,0,0,0-3.621,0l-1.40045,2.98438-3.09088.47168a1.99984,1.99984,0,0,0-1.12976,3.37354L81.86328,90.332l-.5459,3.3457a1.99991,1.99991,0,0,0,2.94141,2.07281L87,94.23541l2.74121,1.51508a1.99994,1.99994,0,0,0,2.94141-2.07281l-.5459-3.3457,2.29486-2.35248A1.99941,1.99941,0,0,0,94.89648,85.94781Z"/><path d="M5.35156,114H21.01862a9.94547,9.94547,0,0,1-1.81744-4H5.35156A1.36159,1.36159,0,0,1,4,108.63177V87.689C4,79.75677,10.27051,74,18.9082,74h1.71191c.23236-.59473.4834-1.1792.76166-1.749a19.75731,19.75731,0,0,1-2.63379-2.2442C7.876,70.08057,0,77.49066,0,87.689v20.94281A5.3658,5.3658,0,0,0,5.35156,114Z"/><path d="M70.24707,114H99a6.00656,6.00656,0,0,0,6-6V82.69727C105,70.70459,95.21289,62,81.72852,62H81.4043a23.18035,23.18035,0,0,1-4.47461,4L72.334,68.42041a22.79582,22.79582,0,0,1-6.1582,1.46338L64,72.72461l-2.1748-2.84082A22.8042,22.8042,0,0,1,55.667,68.4209L51.07031,66a23.18394,23.18394,0,0,1-4.47461-4h-.32129C32.78809,62,23,70.70459,23,82.69727V108a6.00656,6.00656,0,0,0,6,6H57.75287l-4.5556-4H29a2.0017,2.0017,0,0,1-2-2V82.69727c0-8.71539,6.58691-15.25879,16.05469-16.47559a1.986,1.986,0,0,0,.35938.77338L53.44818,80.04828a3.85332,3.85332,0,0,0,4.6084,1.2168L59.74017,83.958l-4.69226,20.9585a2.00264,2.00264,0,0,0,.63177,1.93988l7,6.14648a2.00047,2.00047,0,0,0,2.63959,0l7-6.14648a2.00108,2.00108,0,0,0,.63281-1.93988l-4.69232-20.959,1.68262-2.69238a3.83211,3.83211,0,0,0,1.50684.3194,3.92815,3.92815,0,0,0,3.1026-1.53571L84.58588,66.99506a1.98848,1.98848,0,0,0,.35944-.77338C94.41309,67.4375,101,73.98138,101,82.69727V108a2.00237,2.00237,0,0,1-2,2H74.80182ZM65.39056,81H62.6084l-1.36621-2.18549L64,76.48138l2.75677,2.33313Z"/><path d="M64,65.99a19.01722,19.01722,0,0,0,19-19c0-.25-.03-.49-.04-.73a24.26914,24.26914,0,0,0,2.67-3.12A2.044,2.044,0,0,0,86,41.99V36.58l4.27-8.09a2.04013,2.04013,0,0,0,.13-1.57,2.01741,2.01741,0,0,0-1.05-1.17L64.9,14.19a2.0432,2.0432,0,0,0-1.71,0L38.65,25.75a2.01741,2.01741,0,0,0-1.05,1.17,2.04013,2.04013,0,0,0,.13,1.57L42,36.58v5.41a2.03878,2.03878,0,0,0,.38,1.17,24.58129,24.58129,0,0,0,2.66,3.1c-.00995.24-.04.48-.04.73A19.01722,19.01722,0,0,0,64,65.99Zm0-4.00031A15.00927,15.00927,0,0,1,49.25879,49.6709a27.31991,27.31991,0,0,0,29.48242.001A15.00982,15.00982,0,0,1,64,61.98969ZM64,24.99a2,2,0,1,1-2,2A1.99947,1.99947,0,0,1,64,24.99ZM46,37.98969H82v2H46Z"/><path d="M23.36792,68.74164c4.34668-6.07477,11.63513-10.04321,20.49829-10.65283a22.83652,22.83652,0,0,1-2.85107-10.25775,28.2307,28.2307,0,0,1-1.87988-2.33154A6.07848,6.07848,0,0,1,38,41.99023V40.811A15.97667,15.97667,0,0,0,23.36792,68.74164Z"/><path d="M111,55.999A15.97477,15.97477,0,0,0,90,40.811v1.17926a6.01475,6.01475,0,0,1-1.123,3.48633A27.3249,27.3249,0,0,1,86.98438,47.832a22.8345,22.8345,0,0,1-2.85046,10.25659c8.8631.60907,16.15173,4.57758,20.49841,10.65283A15.96624,15.96624,0,0,0,111,55.999Z"/><text x="0" y="143" fill="#000000" font-size="5px" font-weight="bold" font-family="'Helvetica Neue', Helvetica, Arial-Unicode, Arial, Sans-serif">Created by WEBTECHOPS LLP</text><text x="0" y="148" fill="#000000" font-size="5px" font-weight="bold" font-family="'Helvetica Neue', Helvetica, Arial-Unicode, Arial, Sans-serif">from the Noun Project</text></svg>