<svg width="33" height="25" viewBox="0 0 33 25" fill="none" xmlns="http://www.w3.org/2000/svg">
<g clip-path="url(#clip0_6:217)">
<path d="M12.3802 17.9871C12.3506 17.8999 12.2973 17.8225 12.2261 17.7633C12.1548 17.7041 12.0685 17.6655 11.9764 17.6516L11.1939 17.5337L10.8393 16.7876C10.7984 16.7016 10.7336 16.6289 10.6524 16.578C10.5713 16.5271 10.4771 16.5001 10.3809 16.5001C10.2848 16.5001 10.1906 16.5271 10.1094 16.578C10.0282 16.6289 9.96342 16.7016 9.92255 16.7876L9.56773 17.5337L8.78542 17.6516C8.69339 17.6655 8.60702 17.7041 8.53579 17.7633C8.46456 17.8225 8.41124 17.8999 8.38168 17.9871C8.35211 18.0742 8.34746 18.1678 8.36823 18.2574C8.38899 18.347 8.43438 18.4292 8.49939 18.495L9.0804 19.0832L8.94219 19.9196C8.92692 20.0123 8.93834 20.1072 8.97516 20.1937C9.01197 20.2802 9.07268 20.3548 9.15036 20.4088C9.22804 20.4628 9.31955 20.4942 9.41443 20.4993C9.50931 20.5044 9.60373 20.4831 9.6869 20.4377L10.3809 20.059L11.075 20.4377C11.1581 20.4831 11.2526 20.5044 11.3474 20.4993C11.4423 20.4942 11.5338 20.4628 11.6115 20.4088C11.6892 20.3548 11.7499 20.2802 11.7867 20.1937C11.8235 20.1072 11.8349 20.0122 11.8197 19.9196L11.6815 19.0832L12.2625 18.495C12.3275 18.4292 12.3729 18.347 12.3937 18.2573C12.4144 18.1677 12.4098 18.0742 12.3802 17.9871V17.9871Z" fill="white"/>
<path d="M24.0257 17.9871C23.9961 17.8999 23.9428 17.8225 23.8716 17.7633C23.8003 17.7041 23.714 17.6655 23.622 17.6516L22.8394 17.5337L22.4848 16.7876C22.444 16.7016 22.3791 16.6289 22.298 16.578C22.2168 16.5271 22.1226 16.5001 22.0264 16.5001C21.9303 16.5001 21.8361 16.5271 21.7549 16.578C21.6738 16.6289 21.6089 16.7016 21.5681 16.7876L21.2135 17.5337L20.4309 17.6516C20.3389 17.6655 20.2525 17.7041 20.1813 17.7633C20.1101 17.8225 20.0567 17.8999 20.0272 17.9871C19.9976 18.0742 19.993 18.1678 20.0137 18.2574C20.0345 18.347 20.0799 18.4292 20.1449 18.495L20.7259 19.0831L20.5877 19.9195C20.5724 20.0121 20.5838 20.1072 20.6205 20.1937C20.6573 20.2802 20.718 20.3548 20.7957 20.4089C20.8734 20.4629 20.965 20.4943 21.0599 20.4994C21.1548 20.5045 21.2492 20.4831 21.3324 20.4377L22.0264 20.059L22.7205 20.4377C22.8037 20.4831 22.8981 20.5045 22.993 20.4994C23.0879 20.4943 23.1794 20.4629 23.2571 20.4089C23.3348 20.3548 23.3956 20.2802 23.4323 20.1937C23.4691 20.1072 23.4805 20.0121 23.4652 19.9195L23.327 19.0831L23.908 18.495C23.973 18.4292 24.0184 18.347 24.0392 18.2574C24.0599 18.1677 24.0553 18.0742 24.0257 17.9871Z" fill="white"/>
<path d="M17.7854 25.0003H25.0651C25.4679 24.9999 25.854 24.8417 26.1388 24.5605C26.4236 24.2793 26.5838 23.898 26.5842 23.5003V17.1746C26.5842 14.1764 24.1063 12.0003 20.6923 12.0003H20.6102C20.2781 12.3807 19.8972 12.7168 19.4773 13.0003L18.3138 13.6054C17.8138 13.7983 17.289 13.9215 16.7546 13.9712L16.2037 14.6814L15.6531 13.9712C15.1187 13.9215 14.5939 13.7984 14.094 13.6055L12.9302 13.0003C12.5102 12.7168 12.1294 12.3807 11.7973 12.0003H11.7159C8.30142 12.0003 5.82324 14.1764 5.82324 17.1746V23.5003C5.82368 23.898 5.98387 24.2793 6.26866 24.5605C6.55345 24.8417 6.93958 24.9999 7.34234 25.0003H14.6221L13.4687 24.0003H7.34234C7.20808 24.0002 7.07935 23.9475 6.98441 23.8537C6.88947 23.76 6.83609 23.6329 6.83597 23.5003V17.1746C6.83597 14.9957 8.50367 13.3599 10.9007 13.0557C10.9165 13.1259 10.9476 13.1919 10.9917 13.249L13.5322 16.5123C13.6639 16.6849 13.8506 16.8088 14.0622 16.8639C14.2739 16.9191 14.4981 16.9024 14.699 16.8165L15.1252 17.4898L13.9372 22.7294C13.9174 22.817 13.9218 22.9082 13.95 22.9935C13.9781 23.0788 14.029 23.1551 14.0972 23.2144L15.8695 24.751C15.9619 24.8311 16.0806 24.8753 16.2036 24.8753C16.3266 24.8753 16.4453 24.8311 16.5378 24.751L18.31 23.2144C18.3783 23.1552 18.4293 23.0789 18.4574 22.9936C18.4856 22.9082 18.4901 22.817 18.4703 22.7294L17.2822 17.4897L17.7083 16.8166C17.8286 16.8684 17.9584 16.8956 18.0898 16.8964C18.2417 16.8959 18.3915 16.8611 18.5277 16.7945C18.6638 16.7279 18.7827 16.6315 18.8753 16.5125L21.4157 13.249C21.4599 13.1919 21.4909 13.1259 21.5067 13.0557C23.9038 13.3597 25.5715 14.9956 25.5715 17.1746V23.5003C25.5713 23.6328 25.5179 23.7599 25.423 23.8537C25.3281 23.9474 25.1994 24.0001 25.0651 24.0003H18.9386L17.7854 25.0003ZM16.5558 16.7503H15.8514L15.5055 16.2039L16.2037 15.6206L16.9017 16.2039L16.5558 16.7503Z" fill="white"/>
<path d="M16.2063 12.9973C17.4818 12.9961 18.7047 12.4953 19.6066 11.6048C20.5084 10.7142 21.0156 9.5067 21.0168 8.24728C21.0168 8.18478 21.0092 8.12477 21.0067 8.06477C21.2539 7.8241 21.48 7.56317 21.6827 7.28477C21.7425 7.20045 21.7752 7.10024 21.7763 6.99727V5.64477L22.8574 3.62227C22.889 3.56227 22.9081 3.49667 22.9138 3.42929C22.9194 3.3619 22.9115 3.29408 22.8903 3.22977C22.8681 3.16593 22.8331 3.10715 22.7875 3.0569C22.7418 3.00666 22.6864 2.96598 22.6245 2.93727L16.4342 0.0472703C16.3663 0.0163881 16.2924 0.000396729 16.2177 0.000396729C16.143 0.000396729 16.0691 0.0163881 16.0012 0.0472703L9.78813 2.93727C9.72625 2.96598 9.67084 3.00666 9.62517 3.0569C9.57951 3.10715 9.54452 3.16593 9.52229 3.22977C9.50116 3.29408 9.49318 3.3619 9.49883 3.42929C9.50448 3.49667 9.52365 3.56227 9.5552 3.62227L10.6363 5.64477V6.99727C10.6371 7.10223 10.6707 7.20438 10.7325 7.28977C10.9348 7.56611 11.1601 7.82534 11.406 8.06477C11.4035 8.12477 11.3958 8.18478 11.3958 8.24728C11.397 9.5067 11.9042 10.7142 12.8061 11.6048C13.708 12.4953 14.9309 12.9961 16.2063 12.9973V12.9973ZM16.2063 11.9972C15.3177 11.9957 14.4577 11.6868 13.7759 11.1242C13.094 10.5615 12.6334 9.78073 12.4741 8.9175C13.588 9.62244 14.8832 9.99716 16.2063 9.9972C17.5293 9.99724 18.8246 9.62262 19.9385 8.91775C19.7792 9.78092 19.3185 10.5617 18.6367 11.1242C17.9548 11.6868 17.0949 11.9957 16.2063 11.9972V11.9972ZM16.2063 2.74727C16.3065 2.74727 16.4044 2.7766 16.4876 2.83154C16.5709 2.88648 16.6358 2.96457 16.6741 3.05593C16.7125 3.14729 16.7225 3.24783 16.703 3.34482C16.6834 3.44181 16.6352 3.5309 16.5644 3.60083C16.4936 3.67075 16.4033 3.71837 16.3051 3.73767C16.2069 3.75696 16.1051 3.74706 16.0125 3.70921C15.92 3.67137 15.8409 3.60728 15.7853 3.52506C15.7296 3.44283 15.7 3.34616 15.7 3.24727C15.6999 3.18161 15.713 3.11658 15.7385 3.05591C15.7639 2.99524 15.8012 2.94011 15.8482 2.89368C15.8952 2.84725 15.9511 2.81042 16.0125 2.7853C16.074 2.76018 16.1398 2.74725 16.2063 2.74727ZM11.649 5.9972H20.7636V6.4972H11.649V5.9972Z" fill="white"/>
</g>
<defs>
<clipPath id="clip0_6:217">
<rect width="32.4074" height="25" fill="white"/>
</clipPath>
</defs>
</svg>
