<svg xmlns="http://www.w3.org/2000/svg" viewBox="0 0 512 640" x="0px" y="0px"><title>ship</title><path d="M509.33,267.46A15,15,0,0,0,497,261H35A35,35,0,0,0,0,296V416a35,35,0,0,0,35,35H266.12A261.58,261.58,0,0,0,511,281.27,15,15,0,0,0,509.33,267.46Z"/><path d="M409.85,169.24A35,35,0,0,0,379.13,151H106.28a35.08,35.08,0,0,0-33.77,25.79L57.72,231H443.54Z"/><path d="M224.83,79a35,35,0,0,0-30.6-18H146a35,35,0,0,0-35,35v25H248.16Z"/><text x="0" y="527" fill="#000000" font-size="5px" font-weight="bold" font-family="'Helvetica Neue', Helvetica, Arial-Unicode, Arial, Sans-serif">Created by Peter Lakenbrink</text><text x="0" y="532" fill="#000000" font-size="5px" font-weight="bold" font-family="'Helvetica Neue', Helvetica, Arial-Unicode, Arial, Sans-serif">from the Noun Project</text></svg>