<svg xmlns="http://www.w3.org/2000/svg" xmlns:xlink="http://www.w3.org/1999/xlink" version="1.1" x="0px" y="0px" viewBox="0 0 100 125" enable-background="new 0 0 100 100" xml:space="preserve"><g><g><path d="M80.14,83.815c-5.199,3.327-11.549,4.23-17.075,0.983c8.148-4.12,10.673-14.81,9.928-23.226    c-0.25-3.402-3.051-6.915-4.714-9.951c-5.632-10.276-11.263-20.553-16.894-30.83c6.105-2.73,5.274-12.127-1.244-13.688    c-6.304-1.509-11.108,5.908-7.494,11.188c0.575,0.84,3,1.981,2.561,2.792c-0.461,0.85-0.921,1.699-1.382,2.549    c-1.733,3.197-3.466,6.395-5.199,9.592c-4.047,7.467-8.094,14.933-12.141,22.399c-0.56,1.033-2.236,3.053-2.236,4.273    c0,5.87,0.67,11.646,3.734,16.784c2.066,3.467,5.05,6.384,8.597,8.317c-4.358,2.452-10.177,2.521-14.576,0.121    c-4.593-2.507-8.123-4.951-13.63-4.951c0,1.217,0,2.435,0,3.651c0,0.358,4.538,0.901,5.447,1.249    c3.592,1.377,6.371,4.126,10.161,5.131c4.653,1.234,9.919,0.778,14.176-1.505c4.023-2.157,7.018-4.526,11.837-4.526    c4.562,0,7.525,2.073,11.304,4.23c4.19,2.394,9.258,3.007,13.962,1.982c3.936-0.857,6.731-3.48,10.312-5.063    c0.651-0.288,6.051-1.558,6.051-1.242c0-1.303,0-2.604,0-3.907C87.318,80.17,83.714,81.527,80.14,83.815    C77.612,85.433,82.81,82.106,80.14,83.815z M46.347,59.75c-5.938,0-11.877,0-17.815,0c5.938-10.707,11.877-21.413,17.815-32.119    C46.347,38.337,46.347,49.043,46.347,59.75z M48.496,17.411c-4.105-0.007-4.01-6.498,0.096-6.498    C52.589,10.913,52.492,17.411,48.496,17.411z M50.347,59.75c0-10.773,0-21.547,0-32.321c5.94,10.773,11.88,21.547,17.82,32.321    C62.227,59.75,56.287,59.75,50.347,59.75z"/></g></g><text x="0" y="115" fill="#000000" font-size="5px" font-weight="bold" font-family="'Helvetica Neue', Helvetica, Arial-Unicode, Arial, Sans-serif">Created by bmijnlieff</text><text x="0" y="120" fill="#000000" font-size="5px" font-weight="bold" font-family="'Helvetica Neue', Helvetica, Arial-Unicode, Arial, Sans-serif">from the Noun Project</text></svg>